<mxfile host="app.diagrams.net" modified="2023-07-09T05:24:59.004Z" agent="Mozilla/5.0 (Windows NT 10.0; Win64; x64) AppleWebKit/537.36 (KHTML, like Gecko) Chrome/114.0.0.0 Safari/537.36" version="21.6.1" etag="fLPN2vsu-1lwTAvJwb4R" type="github">
  <diagram name="Page-1" id="BhqJ1CzNhUe7BKRAJbcA">
    <mxGraphModel>
      <root>
        <mxCell id="0" />
        <mxCell id="1" parent="0" />
      </root>
    </mxGraphModel>
  </diagram>
</mxfile>
